<?xml version="1.0" encoding="UTF-8" standalone="no"?>
<!-- Created with Inkscape (http://www.inkscape.org/) -->
<svg
   xmlns:dc="http://purl.org/dc/elements/1.1/"
   xmlns:cc="http://web.resource.org/cc/"
   xmlns:rdf="http://www.w3.org/1999/02/22-rdf-syntax-ns#"
   xmlns:svg="http://www.w3.org/2000/svg"
   xmlns="http://www.w3.org/2000/svg"
   xmlns:xlink="http://www.w3.org/1999/xlink"
   xmlns:sodipodi="http://sodipodi.sourceforge.net/DTD/sodipodi-0.dtd"
   xmlns:inkscape="http://www.inkscape.org/namespaces/inkscape"
   width="802.46997"
   height="108"
   id="svg2"
   sodipodi:version="0.32"
   inkscape:version="0.45.1"
   sodipodi:docbase="C:\Dokumente und Einstellungen\kullmann\Desktop\Goniat"
   sodipodi:docname="Header-Entwurf1.svg"
   inkscape:output_extension="org.inkscape.output.svg.inkscape"
   version="1.0"
   inkscape:export-filename="C:\Dokumente und Einstellungen\kullmann\Desktop\Goniat\Header-Entwurf1.png"
   inkscape:export-xdpi="89.722984"
   inkscape:export-ydpi="89.722984">
  <defs
     id="defs4">
    <linearGradient
       inkscape:collect="always"
       id="linearGradient2768">
      <stop
         style="stop-color:#eabebe;stop-opacity:1;"
         offset="0"
         id="stop2770" />
      <stop
         style="stop-color:#eabebe;stop-opacity:0;"
         offset="1"
         id="stop2772" />
    </linearGradient>
    <linearGradient
       inkscape:collect="always"
       xlink:href="#linearGradient2768"
       id="linearGradient2774"
       x1="70.428574"
       y1="260.93359"
       x2="693.85718"
       y2="297.36218"
       gradientUnits="userSpaceOnUse"
       gradientTransform="matrix(1.2846848,0,0,1.5562539,-149.36121,-351.81461)" />
    <filter
       inkscape:collect="always"
       id="filter6268">
      <feGaussianBlur
         inkscape:collect="always"
         stdDeviation="0.59079141"
         id="feGaussianBlur6270" />
    </filter>
    <filter
       inkscape:collect="always"
       id="filter6276">
      <feGaussianBlur
         inkscape:collect="always"
         stdDeviation="0.48921569"
         id="feGaussianBlur6278" />
    </filter>
  </defs>
  <sodipodi:namedview
     id="base"
     pagecolor="#ffffff"
     bordercolor="#666666"
     borderopacity="1.0"
     inkscape:pageopacity="0.0"
     inkscape:pageshadow="2"
     inkscape:zoom="1"
     inkscape:cx="357.25677"
     inkscape:cy="26.616207"
     inkscape:document-units="px"
     inkscape:current-layer="layer4"
     inkscape:window-width="1280"
     inkscape:window-height="781"
     inkscape:window-x="0"
     inkscape:window-y="0"
     width="802.47px"
     height="108px"
     inkscape:showpageshadow="false" />
  <metadata
     id="metadata7">
    <rdf:RDF>
      <cc:Work
         rdf:about="">
        <dc:format>image/svg+xml</dc:format>
        <dc:type
           rdf:resource="http://purl.org/dc/dcmitype/StillImage" />
      </cc:Work>
    </rdf:RDF>
  </metadata>
  <g
     inkscape:label="Ebene 1"
     inkscape:groupmode="layer"
     id="layer1"
     style="opacity:1;display:inline"
     transform="translate(58.831415,-26.362183)">
    <rect
       style="opacity:1;fill:url(#linearGradient2774);fill-opacity:1;stroke:#8b0000;stroke-width:2.46635032;stroke-miterlimit:4;stroke-dasharray:none;stroke-opacity:1"
       id="rect1872"
       width="800"
       height="84.482162"
       x="-57.59824"
       y="36.478233"
       ry="8.5714283"
       rx="8.5714283" />
  </g>
  <g
     inkscape:groupmode="layer"
     id="layer2"
     inkscape:label="Grafik1"
     style="opacity:1;display:inline"
     transform="translate(58.831415,-26.362183)">
    <image
       y="26.362183"
       x="-53.5"
       id="image2259"
       height="108"
       width="167"
       sodipodi:absref="C:\Dokumente und Einstellungen\kullmann\Desktop\Goniat\GONIAT3.png"
       xlink:href="GONIAT3.png" />
  </g>
  <g
     inkscape:groupmode="layer"
     id="layer4"
     inkscape:label="Grafik2"
     style="opacity:0.35483871;display:inline"
     transform="translate(58.831415,-26.362183)">
    <path
       style="opacity:0.38492061;fill:#d40000;filter:url(#filter6276)"
       d="M 529.29065,106.12104 C 529.29065,96.674186 529.51658,91.639326 529.94048,91.639326 C 530.36438,91.639326 530.5903,96.674186 530.5903,106.12104 C 530.56357,124.19283 529.38523,124.17988 529.29065,106.12104 z M 566.98055,115.30836 C 566.98055,114.79449 567.27297,114.37405 567.63037,114.37405 C 567.98778,114.37405 568.2802,114.5142 568.2802,114.68549 C 568.2802,114.88189 572.72067,114.99692 580.30197,114.99692 C 587.88328,114.99692 592.32375,114.88189 592.32375,114.68549 C 592.32375,114.5142 592.61617,114.37405 592.97358,114.37405 C 593.33098,114.37405 593.6234,114.79449 593.6234,115.30836 C 593.6234,115.82223 593.33098,116.24266 592.97358,116.24266 C 592.61617,116.24266 592.32375,116.10252 592.32375,115.93123 C 592.32375,115.73483 587.88328,115.61979 580.30197,115.61979 C 572.72067,115.61979 568.2802,115.73483 568.2802,115.93123 C 568.2802,116.10252 567.98778,116.24266 567.63037,116.24266 C 567.27297,116.24266 566.98055,115.82223 566.98055,115.30836 z M 571.91393,113.79747 C 571.69322,113.62632 572.0852,113.56773 572.82808,113.66083 C 573.73286,113.77423 574.12863,113.67062 574.12863,113.32036 C 574.12863,113.01598 573.58718,112.81688 572.75945,112.81688 C 571.77792,112.81688 571.50195,112.67741 571.78471,112.32426 C 572.00166,112.05332 572.17915,111.77302 572.17915,111.70139 C 572.17915,111.62976 572.8371,111.58003 573.64126,111.59089 C 575.06226,111.61007 575.05769,111.61968 573.4788,111.93279 L 571.85424,112.25496 L 573.36459,112.53444 C 574.30762,112.70894 574.793,113.01785 574.65678,113.35683 C 574.41429,113.96028 572.51695,114.26509 571.91393,113.79747 z M 575.50366,113.26097 C 575.43369,112.37238 575.58,112.30688 577.54022,112.34921 C 579.39152,112.38919 579.66633,112.50734 579.76708,113.30658 L 579.88201,114.21834 L 579.38179,113.28403 C 578.89239,112.36991 578.73404,112.41684 577.80546,113.75119 C 577.62665,114.00812 577.45728,113.80491 577.42906,113.29961 C 577.37446,112.32174 576.44073,112.50143 575.89165,113.59547 C 575.67841,114.02035 575.55508,113.91402 575.50366,113.26097 z M 580.70227,113.26097 C 580.6323,112.37238 580.77861,112.30688 582.73882,112.34921 C 584.59012,112.38919 584.86494,112.50734 584.96568,113.30658 L 585.08061,114.21834 L 584.5804,113.28403 C 584.09099,112.36991 583.93265,112.41684 583.00407,113.75119 C 582.82526,114.00812 582.65588,113.80491 582.62767,113.29961 C 582.57306,112.32174 581.63934,112.50143 581.09026,113.59547 C 580.87702,114.02035 580.75369,113.91402 580.70227,113.26097 z M 497.93125,113.20617 C 497.79679,113.07771 497.61691,112.41202 497.53153,111.72686 C 497.44615,111.0417 496.97111,109.21981 496.4759,107.67821 C 495.98068,106.13661 495.39081,104.03443 495.16508,103.00669 C 494.87187,101.67181 494.37109,100.98033 493.41181,100.58577 C 492.15698,100.06966 491.96182,100.06711 490.43426,100.5468 C 489.53517,100.82913 488.11326,101.42803 487.27448,101.87769 C 485.78353,102.67696 485.72761,102.68173 484.77612,102.09072 C 483.81036,101.49085 483.59937,100.10376 483.79506,95.640796 C 483.84662,94.464916 483.58699,93.480756 483.19454,93.364516 C 482.8143,93.251886 482.50319,92.878736 482.50319,92.535296 C 482.50319,90.793426 475.70975,85.595536 472.9552,85.229796 C 470.88414,84.954806 470.42988,85.197886 469.13084,87.276286 C 467.94639,89.171326 466.89479,89.728896 466.92255,88.447126 C 466.94856,87.246636 470.30495,84.644046 471.97336,84.530656 C 473.8548,84.402796 477.09097,86.026386 480.55567,88.836416 C 484.22073,91.808936 485.1025,93.601606 485.1025,98.080266 C 485.1025,100.19029 485.26835,101.91667 485.47105,101.91667 C 485.67375,101.91667 486.80486,101.42616 487.98462,100.82665 C 490.28505,99.657656 493.37883,99.354286 494.77539,100.16076 C 495.17935,100.39404 496.10485,102.60133 496.83207,105.06586 C 498.98188,112.3516 498.79391,112.04968 499.8157,109.85825 C 500.29489,108.83052 501.18997,106.8082 501.80475,105.36422 C 502.74995,103.14414 503.28712,102.55511 505.28385,101.54914 C 507.13762,100.61521 508.13131,100.3595 509.9069,100.3595 C 512.6649,100.3595 513.99642,100.99326 517.26566,103.86205 C 519.70367,106.00143 520.82364,106.63699 520.86721,105.90584 C 521.89902,88.587836 521.7915,89.041096 525.32528,87.112196 L 527.16224,86.109496 L 528.09619,87.550816 C 529.29228,89.396686 530.58867,89.396686 531.78476,87.550816 L 532.71871,86.109496 L 534.55568,87.112196 C 535.56601,87.663686 536.6766,88.472846 537.02367,88.910336 C 537.37073,89.347816 537.8304,92.628396 538.04516,96.200506 C 538.25992,99.772616 538.59647,103.44734 538.79305,104.36656 L 539.15047,106.03787 L 541.42698,104.21085 C 545.9031,100.61852 548.57554,99.808336 552.63247,100.81379 C 555.22119,101.45536 556.91506,103.40922 558.61136,107.71035 C 559.41503,109.74814 560.27134,111.52957 560.51425,111.66907 C 560.75718,111.80857 561.15379,110.89763 561.39561,109.64475 C 562.119,105.89686 563.75427,102.06345 565.07299,101.0242 C 566.75939,99.695176 569.53624,99.680466 571.9665,100.98767 C 574.37057,102.28079 574.75511,101.83241 574.77554,97.712296 C 574.79364,94.060356 575.52197,92.425086 578.25704,89.895466 C 581.96807,86.463206 585.94871,84.322076 588.22765,84.532416 C 589.82562,84.679906 591.3607,86.120546 593.31153,89.303566 C 594.88904,91.877446 594.99449,92.394196 594.60212,95.627656 C 594.10969,99.685636 594.31216,99.919286 598.58723,100.22654 C 602.03011,100.47398 602.89578,100.9909 604.60592,103.82054 C 606.26212,106.56092 609.89868,111.35213 610.59505,111.71129 C 610.93572,111.88699 611.1687,111.59873 611.1687,111.00154 C 611.1687,110.44846 612.01399,108.77372 613.04711,107.2799 C 616.2718,102.61724 616.87128,102.06537 619.3192,101.50591 L 621.56591,100.99245 L 621.56591,98.652536 C 621.56591,96.414746 621.66539,96.259866 623.84573,95.103236 C 626.49153,93.699686 630.8625,92.717196 637.40041,92.056466 C 644.14226,91.375126 651.858,91.884266 658.95895,93.479056 C 667.8569,95.477426 680.63291,99.887476 682.15134,101.48464 L 682.8322,102.20081 L 684.1519,101.39675 C 685.78131,100.40398 690.11429,99.428946 692.72184,99.468286 C 694.30197,99.492126 694.00065,99.590976 691.13141,99.990086 C 688.76553,100.31918 686.77566,100.87349 685.13153,101.66146 L 682.67153,102.84043 L 681.71899,101.95763 C 680.42653,100.7598 677.36238,99.518256 669.71513,97.093906 C 660.23062,94.087086 654.7471,92.964636 647.35716,92.517306 C 641.71024,92.175486 640.73485,92.199496 635.60346,92.806616 C 625.64183,93.985226 621.81161,95.850626 622.57148,99.153466 L 622.9747,100.90607 L 620.2093,101.80067 C 617.63391,102.63379 617.27268,102.93578 614.95166,106.19599 C 613.58092,108.12139 612.23808,110.43379 611.96756,111.33466 C 611.69705,112.23552 611.22273,112.9726 610.91353,112.9726 C 610.2414,112.9726 605.81636,107.63061 603.94817,104.56387 C 601.94351,101.27311 601.5565,101.00009 598.5724,100.7714 C 597.13264,100.66106 595.26661,100.24103 594.42565,99.837986 C 592.98644,99.148236 592.92752,98.972846 593.42248,96.851576 C 594.36114,92.828666 593.58658,90.332026 590.23535,86.578516 C 588.55251,84.693666 587.27618,84.677116 584.09869,86.498926 C 578.23554,89.860536 576.07941,92.742066 576.07448,97.222766 C 576.0709,100.47893 575.25658,102.85098 574.14233,102.85098 C 573.82606,102.85098 572.94221,102.43025 572.17821,101.91604 C 569.45033,100.08002 566.61168,100.04405 565.1446,101.82691 C 564.42399,102.70263 561.9652,110.10315 561.67277,112.2765 C 561.586,112.92138 561.22363,113.40247 560.8675,113.34557 C 560.13327,113.22828 559.16095,111.5574 557.20708,107.05534 C 555.43161,102.96436 555.45386,102.9957 553.55645,101.91499 C 552.3428,101.22374 551.36029,100.98237 549.76016,100.98237 C 547.28909,100.98237 545.35856,101.90768 542.15656,104.62681 C 538.26858,107.92849 537.81879,107.45323 537.36682,99.565896 C 536.9338,92.009266 536.29762,89.099176 534.84668,88.037896 C 533.69444,87.195106 532.53978,87.039056 532.53978,87.726116 C 532.53978,87.971906 532.26848,88.514986 531.93688,88.932976 C 531.45828,89.536276 530.98942,89.661376 529.66249,89.539806 C 528.74317,89.455586 527.991,89.183576 527.991,88.935356 C 527.991,88.687126 527.67531,88.201326 527.28946,87.855796 C 526.62913,87.264476 526.51695,87.258346 525.37999,87.751476 C 523.43052,88.596996 522.75071,91.046286 522.39921,98.490886 C 522.21724,102.34489 521.9284,105.82281 521.75734,106.21959 C 521.23161,107.439 519.522,106.87293 516.9814,104.63821 C 512.55161,100.74177 510.86055,100.18117 507.14362,101.37692 C 504.61586,102.19011 503.9586,103.04729 500.94001,109.46753 C 499.23407,113.09592 498.61759,113.86194 497.93125,113.20617 z M 476.00494,110.3254 L 476.00494,108.14536 L 479.57898,108.14536 C 482.32269,108.14536 483.15302,108.25389 483.15302,108.61251 C 483.15302,108.9499 482.43099,109.07967 480.55372,109.07967 C 479.1241,109.07967 477.95441,109.21981 477.95441,109.3911 C 477.95441,109.56239 478.97789,109.70254 480.2288,109.70254 C 481.81727,109.70254 482.50319,109.84342 482.50319,110.16969 C 482.50319,110.49595 481.81727,110.63684 480.2288,110.63684 C 478.64034,110.63684 477.95441,110.77773 477.95441,111.10399 C 477.95441,111.44138 478.67644,111.57114 480.55372,111.57114 C 482.43099,111.57114 483.15302,111.70091 483.15302,112.0383 C 483.15302,112.39692 482.32269,112.50545 479.57898,112.50545 L 476.00494,112.50545 L 476.00494,110.3254 z M 692.68049,102.46733 C 693.11081,100.91265 693.45522,100.41203 693.89851,100.69689 C 694.40128,101.01996 693.49794,104.09671 692.90032,104.09671 C 692.46711,104.09671 692.38924,103.51955 692.68049,102.46733 z M 672.25232,102.4022 C 672.25232,101.85516 672.64226,101.77461 673.19931,102.20659 C 673.40494,102.36604 673.27598,102.58453 672.91275,102.69212 C 672.54951,102.79971 672.25232,102.66925 672.25232,102.4022 z M 672.70134,101.07861 C 672.50154,100.92368 672.57465,100.61346 672.8638,100.38924 C 673.15294,100.16502 673.55299,100.10833 673.75278,100.26326 C 673.95258,100.41819 673.87947,100.72841 673.59033,100.95263 C 673.30118,101.17685 672.90114,101.23354 672.70134,101.07861 z M 672.90215,99.425196 C 672.90215,99.253906 673.19457,99.113756 673.55197,99.113756 C 673.90938,99.113756 674.2018,99.253906 674.2018,99.425196 C 674.2018,99.596476 673.90938,99.736626 673.55197,99.736626 C 673.19457,99.736626 672.90215,99.596476 672.90215,99.425196 z M 694.08714,96.544426 C 694.53301,94.869766 694.76401,94.538566 695.30523,94.797956 C 695.837,95.052806 694.84604,98.179456 694.23351,98.179456 C 693.90972,98.179456 693.84482,97.454526 694.08714,96.544426 z M 673.93079,97.286946 C 673.65087,97.069876 673.59733,96.808166 673.81181,96.705366 C 674.39339,96.426646 675.02749,96.836576 674.71338,97.288206 C 674.49327,97.604676 674.3402,97.604426 673.93079,97.286946 z M 673.90464,95.398066 C 673.69901,95.238606 673.82797,95.020116 674.1912,94.912526 C 674.55443,94.804936 674.85163,94.935396 674.85163,95.202446 C 674.85163,95.749486 674.46169,95.830036 673.90464,95.398066 z M 674.52671,94.130806 C 674.30582,93.959516 674.43478,93.819366 674.81327,93.819366 C 675.19177,93.819366 675.50145,93.959516 675.50145,94.130806 C 675.50145,94.529866 675.04134,94.529866 674.52671,94.130806 z M 529.29065,67.035996 C 529.29065,55.409108 529.51486,49.284228 529.94048,49.284228 C 530.36609,49.284228 530.5903,55.409108 530.5903,67.035996 C 530.5903,78.662886 530.36609,84.787766 529.94048,84.787766 C 529.51486,84.787766 529.29065,78.662886 529.29065,67.035996 z M 490.0042,78.792656 C 488.83892,74.696506 488.36171,71.370426 488.35695,67.311576 C 488.35208,63.150456 488.23364,62.688026 486.97658,61.922128 C 485.07572,60.763978 482.67978,60.934148 480.74842,62.364478 C 478.5494,63.993036 478.02236,64.233086 476.64583,64.233086 C 473.82152,64.233086 472.10598,60.346518 472.10598,53.948008 C 472.10598,50.359648 472.02542,50.148158 469.43308,46.931658 C 466.52997,43.329568 462.40793,40.484308 459.83344,40.305458 C 457.81642,40.165338 456.44885,40.836428 454.24202,43.049278 C 452.44777,44.848408 451.31156,45.408018 451.31156,44.492588 C 451.31156,43.698928 455.08227,40.809258 457.13613,40.028958 C 460.96366,38.574798 465.42906,40.921098 471.19419,47.415618 C 472.84951,49.280378 473.03059,49.894108 473.49133,55.201488 C 474.03298,61.440838 474.35329,62.544588 475.86351,63.375536 C 477.07993,64.044846 478.14593,63.700076 479.69387,62.136708 C 481.58232,60.229448 485.89621,59.983848 488.17908,61.653638 C 489.12619,62.346388 489.34361,63.295126 489.44478,67.176646 C 489.51196,69.754266 489.9296,73.474906 490.37286,75.444726 C 491.09632,78.659776 491.2349,78.898766 491.72721,77.780486 C 492.02885,77.095336 492.98735,75.483656 493.85724,74.198996 C 495.4436,71.856186 496.32607,69.724896 497.13857,66.274066 C 497.49937,64.741676 497.94503,64.244596 499.72131,63.393296 C 501.08112,62.741596 502.50564,62.364478 503.60753,62.364478 C 505.90014,62.364478 508.84659,63.798826 509.744,65.351756 C 510.72617,67.051336 513.19841,69.035956 514.48085,69.154326 C 517.07508,69.393766 517.98344,66.825446 518.86496,56.758658 C 519.58487,48.537408 520.28861,47.003828 524.19094,45.152198 C 525.61215,44.477838 526.86103,43.975478 526.96623,44.035828 C 527.07144,44.096178 527.56436,44.775008 528.06162,45.544338 C 529.30382,47.466158 530.9371,47.575388 531.88603,45.800098 C 532.96735,43.777128 533.33252,43.408048 533.64463,44.022648 C 533.78427,44.297628 534.62628,44.709278 535.51575,44.937418 C 536.40523,45.165568 537.75056,45.831128 538.50536,46.416448 C 539.72564,47.362718 539.90515,48.055238 540.12502,52.664668 C 540.49263,60.371438 541.86724,68.159156 542.9576,68.712376 C 544.03537,69.259216 545.35154,68.619326 546.18725,67.142206 C 547.25008,65.263646 549.29484,63.265756 550.66741,62.764726 C 552.62588,62.049838 556.10529,62.292608 558.72322,63.326806 C 561.83612,64.556546 562.80447,65.497836 563.33996,67.814586 C 563.57751,68.842316 564.51183,71.014576 565.41623,72.641816 C 566.32062,74.269066 567.41608,76.301176 567.85058,77.157616 L 568.64057,78.714796 L 569.54357,75.289016 C 570.04022,73.404836 570.39248,70.041336 570.32638,67.814586 C 570.19278,63.314156 570.95741,62.009548 574.23999,61.137178 C 576.61983,60.504718 578.77694,61.083528 580.38268,62.785426 C 581.33157,63.791136 581.95522,64.077366 583.19762,64.077366 C 585.53353,64.077366 586.40652,62.274528 587.04318,56.135788 C 587.52598,51.480658 587.76203,50.770428 589.55178,48.588098 C 591.82134,45.820718 596.94642,41.727018 599.00777,41.035048 C 602.49817,39.863368 605.18909,40.666768 608.49821,43.868508 C 612.59135,47.828818 614.75771,51.824178 616.04991,57.795888 C 616.77039,61.125488 618.33306,61.824548 621.65052,60.301308 C 623.97289,59.234968 626.33403,59.466628 627.62764,60.887738 C 628.62758,61.986238 634.91582,69.633746 636.26821,71.396076 C 637.02273,72.379296 637.11502,72.409816 637.21016,71.707516 C 637.26817,71.279296 637.28413,70.828316 637.24563,70.705346 C 637.20713,70.582366 637.59149,69.440096 638.09975,68.166946 C 639.58636,64.443216 643.60775,61.118738 646.62549,61.118738 C 648.8554,61.118738 650.57534,60.188548 651.80814,58.315828 C 652.4283,57.373738 653.45583,56.106128 654.09151,55.498918 C 660.59526,49.286528 689.38913,47.231738 707.018,51.721958 C 708.80502,52.177128 710.41334,52.633168 710.59204,52.735368 C 710.77075,52.837578 714.91059,54.204088 719.79169,55.772068 C 727.59344,58.278258 728.85648,58.805728 730.23842,60.134808 L 731.81043,61.646678 L 733.97896,60.408778 C 736.05954,59.221078 741.81433,57.692958 744.20656,57.692958 C 745.86003,57.692958 744.41685,58.153548 741.28892,58.624128 C 737.66664,59.169088 733.55066,60.875558 733.00929,62.056848 C 732.38807,63.412396 731.00016,63.195246 730.16853,61.612388 C 729.32832,60.013208 726.88887,58.503538 723.99852,57.794038 C 722.87954,57.519358 721.81778,57.205098 721.63908,57.095688 C 720.47825,56.384988 704.95476,51.741798 701.92046,51.197708 C 696.28724,50.187588 689.73224,49.812218 681.02497,50.001128 C 665.19817,50.344498 656.58711,52.746158 653.4532,57.691008 C 651.84371,60.230558 649.31642,61.741608 646.67844,61.741608 C 642.76017,61.741608 638.36855,67.125386 638.36855,71.928866 C 638.36855,72.878946 638.09369,73.569286 637.73804,73.512476 C 636.98515,73.392196 632.35192,68.309016 629.42197,64.388806 C 628.26979,62.847206 627.00489,61.270568 626.61108,60.885168 C 625.66218,59.956508 623.47267,59.990298 621.56591,60.963028 C 618.20443,62.677876 615.87825,61.495288 614.98851,57.619208 C 613.97962,53.223978 613.03055,51.115088 610.50271,47.651398 C 607.99164,44.210708 604.74957,41.387628 602.92363,41.051828 C 600.49601,40.605368 596.63647,42.733218 592.6594,46.710718 C 591.32976,48.040508 589.92605,49.408798 589.54004,49.751378 C 589.15404,50.093958 588.61696,52.476428 588.34653,55.045768 C 588.07611,57.615098 587.54615,60.558158 587.16885,61.585898 C 586.79154,62.613626 586.48116,63.556376 586.47908,63.680896 C 586.47123,64.152966 583.24369,64.900586 582.01828,64.714196 C 581.31892,64.607816 580.14424,63.906496 579.40787,63.155706 C 577.82769,61.544578 577.18458,61.307728 575.07825,61.561088 C 572.129,61.915838 571.29217,63.327876 571.43214,67.713386 C 571.50143,69.884486 571.11302,73.383936 570.56899,75.489946 C 570.02496,77.595956 569.57985,79.526456 569.57985,79.779946 C 569.57985,81.934816 563.84351,72.827366 562.39932,68.379586 C 561.96472,67.041096 561.05801,65.505006 560.38444,64.966036 C 558.35007,63.338236 554.2738,62.412998 551.86199,63.031606 C 550.54762,63.368736 546.8513,66.923906 546.81528,67.885606 C 546.75829,69.407316 542.79204,70.128316 541.638,68.826746 C 540.65184,67.714506 539.03838,58.185538 539.03441,53.450098 C 539.03051,48.792548 538.38262,47.035898 536.26318,45.936308 C 534.40934,44.974518 533.5866,45.055438 532.65414,46.291308 C 531.88287,47.313508 530.0909,47.856148 528.8102,47.455308 C 528.46682,47.347838 527.90444,46.848228 527.56045,46.345068 C 526.73617,45.139328 525.93916,45.058138 524.00885,45.983258 C 521.26355,47.298968 520.40677,49.681438 519.85384,57.537248 C 519.25965,65.979116 518.38033,68.830796 516.16718,69.493196 C 513.78954,70.204826 512.05479,69.421496 509.47989,66.473516 C 508.2069,65.016096 506.66066,63.639956 506.04378,63.415406 C 503.06556,62.331358 499.14025,63.458706 498.47811,65.588276 C 498.31043,66.127586 497.83146,67.688836 497.41374,69.057706 C 496.99602,70.426586 495.69616,73.089346 494.52517,74.974966 C 493.35417,76.860586 492.21157,78.788756 491.98604,79.259806 C 491.38067,80.524216 490.43327,80.300896 490.0042,78.792656 z M 476.00494,77.001906 L 476.00494,74.821856 L 479.25407,74.821856 C 481.70896,74.821856 482.50319,74.936056 482.50319,75.289016 C 482.50319,75.615276 481.81727,75.756166 480.2288,75.756166 C 478.97789,75.756166 477.95441,75.896306 477.95441,76.067596 C 477.95441,76.238886 478.83168,76.379036 479.90389,76.379036 C 481.20354,76.379036 481.85337,76.534746 481.85337,76.846186 C 481.85337,77.157616 481.20354,77.313336 479.90389,77.313336 C 478.17102,77.313336 477.95441,77.417146 477.95441,78.247636 C 477.95441,78.870506 477.6295,79.181946 476.97968,79.181946 C 476.20607,79.181946 476.00494,78.732096 476.00494,77.001906 z M 742.65789,62.130908 C 742.82947,61.831148 743.15485,61.060348 743.38095,60.418018 C 743.60705,59.775678 744.03196,59.250138 744.32518,59.250138 C 744.6184,59.250138 744.61788,59.845748 744.32403,60.573728 C 744.03018,61.301708 743.77702,62.072508 743.76146,62.286618 C 743.7459,62.500728 743.42104,62.675916 743.03954,62.675916 C 742.65806,62.675916 742.48631,62.430658 742.65789,62.130908 z M 719.4102,61.154028 C 719.21434,61.002148 719.46649,60.713848 719.97055,60.513358 C 720.71937,60.215518 720.82306,60.266028 720.53743,60.789508 C 720.15144,61.496918 719.94038,61.565168 719.4102,61.154028 z M 719.68961,59.405848 C 719.68961,59.148918 719.97285,58.938698 720.31904,58.938698 C 720.66522,58.938698 720.78015,59.148918 720.57443,59.405848 C 720.09549,60.004018 719.68961,60.004018 719.68961,59.405848 z M 720.33943,58.352588 C 720.33943,58.181298 720.63185,57.954538 720.98926,57.848678 C 721.34666,57.742818 721.63908,57.796348 721.63908,57.967638 C 721.63908,58.138928 721.34666,58.365688 720.98926,58.471548 C 720.63185,58.577408 720.33943,58.523878 720.33943,58.352588 z M 744.61612,55.668638 C 744.83743,54.983478 745.02172,54.099298 745.02566,53.703788 C 745.02959,53.308278 745.28983,53.060808 745.60397,53.153858 C 746.33558,53.370558 745.73443,56.191628 744.869,56.602938 C 744.42893,56.812098 744.34587,56.505248 744.61612,55.668638 z M 720.66434,55.201488 C 720.88523,55.030198 721.35838,54.890048 721.71578,54.890048 C 722.07319,54.890048 722.18488,55.030198 721.964,55.201488 C 721.74311,55.372778 721.26996,55.512918 720.91256,55.512918 C 720.55515,55.512918 720.44346,55.372778 720.66434,55.201488 z M 721.73216,53.984698 C 721.07845,53.790048 721.04763,53.663778 721.61294,53.496338 C 722.50463,53.232218 723.17405,53.466028 722.84397,53.926298 C 722.70879,54.114798 722.25002,54.138898 721.73216,53.984698 z M 722.0179,52.751808 C 721.73797,52.534738 721.68443,52.273028 721.89892,52.170228 C 722.4805,51.891508 723.1146,52.301438 722.80048,52.753068 C 722.58037,53.069538 722.42731,53.069288 722.0179,52.751808 z M 529.29065,40.901448 C 529.29065,39.545408 529.0173,38.389208 528.68321,38.332108 C 528.0442,38.222908 529.25156,35.581108 529.94048,35.581108 C 530.62939,35.581108 531.83675,38.222908 531.19775,38.332108 C 530.86365,38.389208 530.5903,39.545408 530.5903,40.901448 C 530.5903,42.337508 530.31897,43.366968 529.94048,43.366968 C 529.56198,43.366968 529.29065,42.337508 529.29065,40.901448 z "
       id="path4254"
       sodipodi:nodetypes="cscccsssssssssssccsssssscccsccscccsssccscccsssccssssssssssssssssssssssssssccccccsscccsssssssssssssssscccssscccsscccssscccssssssssssssssssssssssssssssssssccccsssssssssccccssccssccsssccsssccssccssccssccssccsssccssssssssssssssssssssssssssssssssssssssscccssssssssssssssssssssscccssssssssssssssssssssssssssssssssssssssssssssssssccccssssssssccsssssccssccssccsssccsssccsssccssccssccsssssc"
       transform="matrix(1.1992141,0,0,1,-191.03712,2)" />
    <path
       style="opacity:0.6507937;fill:#d40000;filter:url(#filter6268)"
       d="M 645.9375,16.03125 C 645.87382,16.166691 645.81144,16.300909 645.75,16.4375 C 643.89311,20.565931 641.03377,32.638345 639.9375,40.875 C 639.20895,46.348812 642.64162,50.531248 647.875,50.53125 C 649.05328,50.53125 649.53125,50.723774 649.53125,51.1875 C 649.53125,53.10679 653.34261,54.568629 655.5625,53.5 C 656.1053,53.2387 656.9835,53.256017 658.09375,53.5625 C 659.29847,53.895068 660.11289,53.906077 660.875,53.59375 C 661.68592,53.261418 662.28677,53.312579 663.28125,53.78125 C 664.00834,54.12391 665.19701,54.316516 665.9375,54.21875 C 666.81017,54.103551 667.28123,54.220466 667.28125,54.5625 C 667.28125,54.852718 667.80309,55.457396 668.4375,55.90625 C 669.07189,56.355104 669.47369,56.855009 669.3125,57 C 669.15131,57.145003 669.35464,57.607266 669.78125,58.03125 C 670.58625,58.831345 670.64858,62.077947 669.875,63.71875 C 669.31843,64.899275 667.18187,66.699433 666.15625,66.84375 C 665.65523,66.914263 664.88496,67.260776 664.4375,67.625 C 663.93399,68.034867 663.38008,68.156767 663,67.9375 C 662.66223,67.742652 661.43888,67.551274 660.28125,67.5 C 659.12363,67.448726 657.3192,67.268182 656.28125,67.125 C 654.81005,66.922043 654.15956,67.047798 653.28125,67.6875 C 652.36025,68.358313 651.87596,68.443443 650.59375,68.125 C 648.2983,67.554915 645.90014,68.739539 644.46875,71.15625 C 643.37956,72.995219 643.36041,73.240306 643.59375,80.1875 C 643.81087,86.65139 643.98115,87.757677 645.28125,91.5 C 645.88374,93.234256 646.47493,94.69767 647.125,96.03125 L 647.96875,96.03125 C 645.45537,91.251566 644.24542,85.672671 644.1875,78.71875 C 644.14877,74.071202 644.27533,72.807208 644.9375,71.71875 C 646.43679,69.254151 648.90122,68.118225 651.09375,68.875 C 651.64446,69.06508 651.7156,69.350533 651.375,70.15625 C 650.73694,71.665802 650.8071,73.978733 651.625,76.84375 C 654.2587,86.06931 662.81779,92.113422 673.375,92.1875 C 678.57271,92.22397 685.6472,89.260726 689.46875,85.4375 C 692.30642,82.59859 693.5356,79.514946 693.90625,74.34375 C 694.16994,70.664963 694.30841,70.155849 695.15625,69.875 C 696.59788,69.397464 698.9108,70.473182 699.875,72.0625 C 700.59131,73.24319 700.73672,74.455614 700.71875,79.78125 C 700.69919,85.57912 700.56069,86.464353 699.1875,90.8125 C 698.53559,92.876731 697.91212,94.551326 697.1875,96.03125 L 698.1875,96.03125 C 700.43786,91.289242 701.57374,86.027714 701.625,80 C 701.67991,73.541648 701.20046,71.751599 698.96875,70.0625 C 697.69936,69.101752 697.21121,68.996221 695.40625,69.21875 C 693.79638,69.417222 693.12701,69.311278 692.4375,68.75 C 691.85757,68.27793 690.8596,68.025381 689.59375,68.0625 C 688.52058,68.093991 686.36923,68.168281 684.8125,68.21875 C 682.93803,68.279537 681.47536,68.078681 680.5,67.625 C 679.68996,67.248217 678.71114,66.937499 678.3125,66.9375 C 677.91385,66.9375 677.59377,66.677719 677.59375,66.34375 C 677.59375,66.009789 677.13626,65.46676 676.59375,65.125 C 675.24416,64.274718 674.74244,59.431287 675.90625,58.5625 C 676.32278,58.251567 676.64868,57.792161 676.65625,57.53125 C 676.6867,56.477634 679.43436,54.312499 680.75,54.3125 C 681.47622,54.3125 682.48056,54.071095 682.96875,53.75 C 683.72595,53.251986 683.99685,53.250851 684.84375,53.75 C 685.39544,54.075132 686.87737,54.311571 688.15625,54.28125 C 689.42211,54.251222 691.06597,54.352574 691.8125,54.53125 C 693.47473,54.929102 695.96228,53.869163 696.6875,52.4375 C 696.95778,51.903923 697.44249,51.486675 697.78125,51.5 C 701.07967,51.629729 704.22939,49.971998 705.5,47.4375 C 706.57279,45.297619 706.57357,42.31794 705.5,33.5 C 704.6933,26.873973 703.05074,20.161602 701.25,16.03125 L 700.28125,16.03125 C 701.10025,17.758286 701.81303,19.611258 702.375,21.625 C 703.85356,26.92325 703.84984,27.027738 705,36.78125 C 705.6969,42.691121 705.74493,44.146863 705.25,45.8125 C 704.569,48.104335 703.23642,49.553802 701.09375,50.375 C 699.43687,51.010015 697.85913,51.145673 697.53125,50.65625 C 697.41499,50.482707 697.07979,47.851819 696.78125,44.84375 C 696.0358,37.331919 695.30236,35.354546 692.1875,32.46875 C 690.80389,31.186907 689.05979,29.337684 688.3125,28.375 C 684.67195,23.6851 680.76521,22.14757 672.6875,22.1875 C 665.17205,22.224645 660.90084,23.841791 658.84375,27.46875 C 658.3194,28.393227 656.7129,30.149745 655.28125,31.34375 C 653.83746,32.547917 652.26723,34.298899 651.78125,35.3125 C 650.86349,37.226561 649.81536,41.981657 649.1875,46.96875 L 648.8125,49.90625 L 647.1875,49.75 C 644.73716,49.536208 642.69032,48.216122 641.53125,46.0625 C 640.6449,44.415594 640.56197,43.704931 640.8125,41.125 C 641.25307,36.587634 644.19511,22.955479 645.46875,19.59375 C 645.88294,18.500481 646.43793,17.257711 647.03125,16.03125 L 645.9375,16.03125 z M 739.1875,16.03125 C 734.26597,21.211282 731.00775,26.587953 728.40625,33.71875 C 724.72914,43.797797 724.90614,52.459218 728.875,55.6875 C 729.36137,56.083109 729.81417,57.019904 729.875,57.78125 C 730.05301,60.009229 730.90704,61.848652 731.875,62.125 C 732.45662,62.291037 733.35199,61.973279 734.40625,61.25 L 736.03125,60.125 L 737.28125,61.03125 C 737.96672,61.516245 738.67552,61.90625 738.875,61.90625 C 739.07446,61.90625 740.2489,61.170764 741.5,60.28125 C 743.32983,58.980249 743.95315,58.761544 744.59375,59.125 C 745.19809,59.467896 745.7349,59.370408 746.84375,58.78125 C 748.0732,58.128012 748.48821,58.089301 749.40625,58.53125 C 750.00633,58.820111 750.76762,58.967106 751.125,58.84375 C 751.48237,58.720394 752.03846,58.966556 752.34375,59.40625 C 752.64903,59.845944 753.33145,60.218749 753.84375,60.21875 C 754.39807,60.21875 754.7797,60.499378 754.8125,60.9375 C 754.9996,63.436022 754.94317,64.437414 754.625,64.4375 C 754.42655,64.437547 754.04518,64.854369 753.78125,65.375 C 753.1543,66.61179 751.38475,67.367769 750.34375,66.84375 C 749.82623,66.58324 749.08597,66.634011 748.1875,66.96875 C 747.27076,67.3103 746.60994,67.341743 746.21875,67.0625 C 744.94954,66.156412 742.13052,65.576406 741.4375,66.09375 C 740.91745,66.481959 740.10151,66.359908 737.625,65.46875 C 733.93948,64.142514 733.09591,64.367508 732.875,66.71875 C 732.75421,68.004477 732.583,68.213634 731.9375,67.96875 C 728.41963,66.634229 727.92706,67.602013 728.21875,75.375 C 728.47441,82.18806 729.99584,88.084499 732.8125,93.1875 C 733.28052,94.035428 733.89799,95.026214 734.5625,96.03125 L 735.375,96.03125 C 733.82606,93.647891 732.47875,90.911862 731.4375,87.96875 C 729.53133,82.58096 728.9476,79.412369 728.875,73.8125 C 728.80621,68.504216 729.12131,67.764134 731.25,68.4375 C 732.38176,68.795516 732.59015,69.136201 732.875,71.1875 C 733.05332,72.471527 733.71694,74.802338 734.375,76.375 C 741.17186,92.61741 761.0703,97.420749 773.75,85.875 C 778.17401,81.84662 780.62625,77.756097 781.875,72.3125 C 782.33717,70.297687 782.61082,69.839843 783.5625,69.625 C 785.33814,69.224139 786.09373,70.126109 786.09375,72.59375 C 786.09375,80.314148 783.18378,89.35022 778.875,96.03125 L 779.90625,96.03125 C 780.21162,95.545897 780.53031,95.066523 780.8125,94.5625 C 785.53687,86.12416 788.26838,73.123638 786.09375,69.46875 C 785.64066,68.707241 785.26938,68.587753 783.9375,68.8125 C 782.43863,69.06542 782.34375,69.010318 782.34375,67.9375 C 782.34375,67.308918 782.02229,66.488614 781.625,66.09375 C 780.94561,65.418487 780.71319,65.429455 777.53125,66.3125 C 774.63517,67.11623 773.99385,67.169074 773.1875,66.6875 C 772.38182,66.206318 771.90702,66.242222 769.78125,66.96875 C 767.87126,67.62154 767.15578,67.716651 766.65625,67.34375 C 766.29874,67.076879 765.40999,66.943655 764.71875,67.0625 C 763.26921,67.311749 761.31249,66.625581 761.3125,65.875 C 761.3125,65.593387 760.99359,65.15016 760.625,64.875 C 759.54355,64.067694 759.89956,60.624998 761.0625,60.625 C 761.43346,60.625 762.15096,60.237827 762.65625,59.75 C 763.16152,59.26216 763.84668,58.953027 764.1875,59.0625 C 764.52832,59.171987 765.17718,59.082135 765.625,58.875 C 766.17,58.62293 766.9306,58.733675 767.90625,59.1875 C 768.70804,59.560436 769.80983,59.752581 770.375,59.625 C 771.11732,59.457406 772.03293,59.855891 773.65625,61.0625 C 774.89215,61.981111 776.05545,62.749998 776.25,62.75 C 776.44455,62.75 777.16951,62.352029 777.84375,61.875 L 779.0625,61 L 780.625,62.09375 C 781.48894,62.686473 782.54325,63.156248 782.9375,63.15625 C 783.63546,63.15625 785.62497,59.631732 785.625,58.40625 C 785.625,58.080079 786.04056,57.493196 786.53125,57.09375 C 787.81321,56.050202 789.23237,52.810614 789.59375,50.125 C 789.76499,48.852351 789.6838,45.846553 789.40625,43.4375 C 788.29035,33.752668 783.63513,23.756039 776.875,16.03125 L 776,16.03125 C 780.91432,21.645497 785.09212,29.18557 787.53125,37.5 C 788.34282,40.266432 788.5922,42.300226 788.625,46.53125 C 788.66303,51.433773 788.55744,52.238885 787.5625,54.21875 C 786.952,55.433552 786.25683,56.437499 786.03125,56.4375 C 785.80568,56.4375 785.62881,55.711463 785.625,54.84375 C 785.61567,52.714173 784.48514,48.516001 783,45.125 C 779.52869,37.198993 773.8416,31.343001 766.59375,28.1875 C 762.9313,26.592965 762.04849,26.374045 758.4375,26.21875 C 752.01833,25.942696 746.96024,27.852145 741.09375,32.78125 C 735.63081,37.37133 730.29043,47.020176 729.90625,52.96875 C 729.76042,55.22645 729.11603,55.062775 727.65625,52.4375 C 726.71655,50.747535 726.52759,49.814459 726.5625,47 C 726.61738,42.580017 727.33028,39.243051 729.34375,33.75 C 731.83801,26.94521 735.4593,21.13524 740.34375,16.03125 L 739.1875,16.03125 z M 671.34375,22.84375 C 672.19236,22.824283 673.10522,22.834425 674.03125,22.875 C 681.48705,23.201678 683.76379,24.163972 687.375,28.4375 C 688.53824,29.814089 690.29331,31.603406 691.28125,32.40625 C 694.39869,34.939556 695.31142,37.389568 696.125,45.5 C 696.60658,50.30065 696.4256,51.843181 695.25,52.96875 C 694.61485,53.576889 693.73522,53.896305 692.8125,53.875 C 690.41161,53.819572 690.29685,53.63506 690.5625,51 C 690.8727,47.922978 689.76394,45.520865 686.6875,42.5625 C 682.66281,38.6923 676.62261,37.038627 669.6875,37.90625 C 661.35127,38.94916 655.14486,44.458205 655.6875,50.34375 C 655.86501,52.269035 655.77785,52.764439 655.09375,53.09375 C 653.68643,53.771221 652.32861,53.545074 651.0625,52.40625 C 649.85256,51.31792 649.87111,51.292932 650.1875,46.40625 C 650.3621,43.709528 650.92908,39.976116 651.46875,38.125 C 652.39614,34.943838 652.63534,34.620543 655.625,32 C 657.36471,30.475092 659.21731,28.439231 659.75,27.5 C 661.40574,24.580734 665.40347,22.980018 671.34375,22.84375 z M 756.90625,26.6875 C 762.58538,26.513113 768.54224,28.951573 773.78125,33.625 C 781.20488,40.247232 786.26722,51.874155 784.6875,58.71875 C 784.39581,59.982582 783.80859,61.404534 783.375,61.875 L 782.59375,62.75 L 781.09375,61.6875 C 779.62057,60.637542 779.63074,60.617621 779.875,57.59375 C 780.19796,53.595508 778.99496,50.600358 775.78125,47.4375 C 769.54753,41.302447 760.05544,38.75987 751.03125,40.8125 C 746.47602,41.848624 743.73839,43.168403 740.40625,46 C 736.85593,49.017027 735.44211,51.985931 735.375,56.375 C 735.32603,59.576511 735.20627,59.930432 734.15625,60.65625 C 732.48507,61.811421 731.88592,61.675662 731.0625,59.90625 C 730.06469,57.762144 730.46203,51.698238 731.84375,48 C 736.17187,36.415249 744.62616,28.542698 754.5,26.90625 C 755.29667,26.774214 756.09495,26.712412 756.90625,26.6875 z M 672,38.4375 C 672.75042,38.423127 673.53359,38.421546 674.3125,38.46875 C 679.47517,38.781619 681.97826,39.615705 684.96875,41.96875 C 689.16084,45.267261 690.91792,49.082121 689.5625,52 C 688.96341,53.289705 688.64478,53.479787 687.3125,53.46875 C 685.31341,53.452178 684.18343,52.833346 684.4375,51.90625 C 684.78137,50.651306 682.94993,48.603145 680.5625,47.5625 C 677.56523,46.256011 670.93863,45.933557 667.21875,46.90625 C 664.27272,47.676601 662.18102,49.387963 661.71875,51.4375 C 661.44165,52.666146 661.20208,52.8601 659.78125,52.96875 C 657.44212,53.147592 656.42071,52.2844 656.28125,50.0625 C 656.15388,48.032897 657.5891,44.872114 659.53125,42.90625 C 662.28523,40.118665 666.74705,38.53811 672,38.4375 z M 758.375,40.625 C 758.71563,40.627578 759.02803,40.654824 759.25,40.6875 C 768.36984,42.030001 774.68974,45.632773 777.78125,51.28125 C 779.69788,54.78313 779.93261,58.576556 778.34375,60.5 C 776.9812,62.149467 775.9026,62.114336 773.625,60.375 C 771.85471,59.023069 771.69135,58.79275 772.15625,57.875 C 772.96049,56.287299 771.87403,53.702506 769.53125,51.65625 C 763.65221,46.52132 750.21668,46.658066 745.09375,51.90625 C 743.0883,53.960722 742.3285,55.798597 742.96875,57.0625 C 743.43728,57.987438 743.29834,58.230446 741.40625,59.625 C 738.8859,61.482629 737.36261,61.376992 736.5625,59.3125 C 735.23271,55.88131 736.66401,50.54133 739.71875,47.5 C 741.86994,45.358242 746.01034,42.827087 748.71875,42 C 751.08353,41.277837 755.99059,40.606952 758.375,40.625 z M 673.15625,47 C 676.54161,47.006858 677.82179,47.207023 679.8125,48 C 681.17394,48.542312 682.59373,49.362189 682.96875,49.84375 C 683.80603,50.918989 683.8808,52.38123 683.09375,52.96875 C 682.01402,53.77477 680.19302,53.910717 679,53.28125 C 676.59397,52.011764 675.56914,51.812499 672.25,51.8125 C 669.41308,51.8125 668.69058,51.938838 667.96875,52.65625 C 667.29092,53.329955 666.6348,53.503922 664.96875,53.40625 C 662.87526,53.28352 662.86127,53.23533 662.71875,51.6875 C 662.43276,48.581229 666.01275,46.985517 673.15625,47 z M 756.9375,48.5 C 762.2838,48.465467 767.76675,50.09864 770.28125,53.21875 C 771.85699,55.173992 772.06621,57.616074 770.75,58.6875 C 769.7344,59.514211 769.8385,59.509166 768.21875,58.71875 C 767.39223,58.315422 766.90623,57.745096 766.90625,57.125 C 766.90625,56.024159 765.56749,54.77911 763.1875,53.6875 C 761.99281,53.139534 760.38867,52.925689 757.3125,52.90625 C 752.43742,52.875431 750.6499,53.536173 748.6875,56.125 C 748.04002,56.979177 747.03204,57.970769 746.4375,58.34375 C 745.43701,58.971399 745.27674,58.995671 744.4375,58.3125 C 742.7333,56.925253 743.51157,54.004565 746.1875,51.71875 C 748.69994,49.5726 752.77927,48.526859 756.9375,48.5 z M 672.3125,52.25 C 673.78396,52.241257 675.35631,52.437412 676.4375,52.84375 C 677.67897,53.310332 678.06248,53.689886 678.0625,54.5 C 678.0625,55.80172 676.75443,56.521966 675.53125,55.90625 C 675.04651,55.662241 673.44765,55.564333 671.9375,55.6875 C 669.74936,55.865977 669.09015,55.774028 668.5,55.1875 C 667.50579,54.199333 667.58435,53.648784 668.8125,52.875 C 669.4739,52.45831 670.84104,52.258743 672.3125,52.25 z M 756.3125,53.5 C 758.22288,53.407059 760.23881,53.562778 762.03125,53.96875 C 764.12415,54.44278 766.43752,56.289836 766.4375,57.5 C 766.4375,58.628224 764.16299,58.717657 762.09375,57.65625 C 759.66151,56.408671 754.46725,56.201049 753.0625,57.3125 C 750.5119,59.330571 748.0851,58.160572 749.59375,55.625 C 750.28758,54.458892 753.12853,53.654902 756.3125,53.5 z M 672.375,56 C 674.81012,56 675.71872,56.342693 675.71875,57.28125 C 675.71875,58.322851 674.98238,58.65808 673.875,58.125 C 673.25988,57.828892 672.5683,57.813895 671.75,58.09375 C 670.79903,58.418964 670.49013,58.395838 670.28125,57.90625 C 669.75555,56.674004 670.46691,55.999999 672.375,56 z M 756.875,57.28125 C 760.51769,57.28125 762.35016,57.905383 762.15625,59.125 C 761.99731,60.124841 760.58094,60.442084 759.28125,59.75 C 758.76021,59.472553 757.48609,59.372581 756.15625,59.53125 C 752.77506,59.934685 751.61379,59.324911 753.15625,57.9375 C 753.67085,57.474624 754.78519,57.281251 756.875,57.28125 z M 672.5625,58.625 C 673.21549,58.601953 673.92816,58.747566 674.21875,59.0625 C 674.64285,59.522142 674.37296,59.609815 672.875,59.59375 C 671.85873,59.582843 671.10427,59.387642 671.1875,59.15625 C 671.306,58.826875 671.90951,58.648047 672.5625,58.625 z M 757.3125,59.8125 C 757.94421,59.818449 758.62178,59.992219 759.15625,60.34375 C 759.90013,60.833006 759.72246,60.902916 757.65625,60.875 C 755.82786,60.850308 755.40497,60.720738 755.78125,60.3125 C 756.09786,59.968984 756.68079,59.806551 757.3125,59.8125 z M 672.625,59.84375 C 672.87078,59.856423 673.17493,59.95336 673.59375,60.125 C 674.58277,60.530323 674.80384,60.872268 674.6875,61.78125 C 674.56535,62.735624 674.29461,62.986397 673.0625,63.09375 C 671.02141,63.271601 670.21001,61.991926 671.46875,60.59375 C 671.95473,60.053929 672.21536,59.822628 672.625,59.84375 z M 757.28125,61.21875 C 758.90418,61.066393 760.35507,63.012475 758.875,64.34375 C 757.76169,65.345149 756.04664,64.831244 755.53125,63.34375 C 755.32479,62.747863 755.51416,62.210194 756.15625,61.6875 C 756.51413,61.396182 756.90673,61.253909 757.28125,61.21875 z M 670.8125,63.40625 C 671.02815,63.407995 671.29824,63.482748 671.59375,63.625 C 672.28381,63.957191 672.87532,63.945045 673.65625,63.625 C 674.86429,63.129913 675.50668,63.615135 675.0625,64.65625 C 674.71516,65.470402 671.34531,65.47083 670.59375,64.65625 C 669.96085,63.97031 670.16556,63.401016 670.8125,63.40625 z M 757.09375,65.0625 C 760.05522,65.0625 761.12507,65.49431 760.3125,66.375 C 760.00389,66.709457 758.99752,66.934623 757.875,66.90625 C 755.07098,66.835359 754.204,66.546755 754.375,65.75 C 754.49352,65.197726 755.07171,65.062502 757.09375,65.0625 z M 669.9375,65.15625 C 670.28322,65.163685 670.71065,65.305066 671.3125,65.53125 C 672.46191,65.963237 673.17577,65.971625 674.28125,65.625 C 675.37231,65.282883 675.91799,65.299667 676.4375,65.6875 C 677.36493,66.379831 677.31287,67.237436 676.3125,67.71875 C 672.72733,69.443759 666.09974,67.396871 669.03125,65.46875 C 669.34521,65.262258 669.59178,65.148815 669.9375,65.15625 z M 734.625,65.3125 C 735.2497,65.277079 736.21657,65.556753 737.6875,66.09375 C 740.08797,66.970105 740.19426,67.074028 739.75,68.125 C 738.2338,71.712028 742.525,77.889043 748,80 C 753.0214,81.93605 761.0562,82.151938 765.84375,80.5 C 768.98687,79.41547 772.73108,76.554166 773.9375,74.3125 C 774.49576,73.275219 774.93715,71.501423 775,70.0625 L 775.09375,67.625 L 777.84375,66.875 C 779.35068,66.462854 780.77048,66.216167 781,66.34375 C 781.65454,66.707621 781.48575,71.163803 780.71875,73.8125 C 778.88964,80.129027 773.42565,86.584258 767.75,89.125 C 766.08102,89.87212 763.47007,90.773261 761.96875,91.125 C 756.40622,92.42822 750.42713,91.330482 744.9375,87.96875 C 741.27994,85.72893 739.18764,83.617911 737.0625,80 C 734.44203,75.53882 733.58259,72.78999 733.53125,68.875 C 733.49859,66.38282 733.58384,65.371536 734.625,65.3125 z M 742.3125,66.34375 C 742.70834,66.327451 743.27151,66.516985 744.375,66.90625 C 746.42317,67.628739 746.59886,67.806443 746.84375,69.40625 C 747.39473,73.005967 751.17399,75.032433 757.53125,75.09375 C 763.73765,75.1536 767.15131,73.300101 767.84375,69.5 C 768.08163,68.194573 768.33278,67.976712 770.375,67.40625 C 772.59526,66.78606 772.6717,66.795221 773.53125,67.75 C 775.1629,69.562458 774.34357,73.432394 771.78125,76.125 C 769.83382,78.17143 765.58843,80.195141 762.03125,80.78125 C 757.81482,81.47599 755.01019,81.254768 749.375,79.78125 C 746.39307,79.00152 742.61058,76.11735 741.21875,73.53125 C 739.94391,71.162505 739.95974,68.246799 741.21875,67.03125 C 741.68906,66.57718 741.91666,66.360049 742.3125,66.34375 z M 753.40625,66.78125 C 753.71192,66.728517 754.01819,66.796988 754.375,66.96875 C 754.88023,67.211956 756.85132,67.377147 758.78125,67.3125 C 761.36333,67.226006 762.39539,67.324892 762.6875,67.75 C 763.24728,68.564719 762.85514,69.288387 761.5,69.84375 C 760.1684,70.389472 754.98547,70.425061 753.5625,69.90625 C 753.03907,69.715403 752.3061,69.243229 751.9375,68.84375 C 751.34371,68.200178 751.41752,68.009897 752.375,67.3125 C 752.79475,67.006778 753.10058,66.833983 753.40625,66.78125 z M 749.375,67.34375 C 750.04699,67.334074 750.69427,67.682963 751,68.40625 C 751.67088,69.993432 754.02076,70.846769 757.65625,70.84375 C 761.05245,70.840929 763.10726,70.052182 763.53125,68.59375 C 763.78955,67.705285 765.01814,67.222488 766.09375,67.59375 C 768.13411,68.298014 766.88593,72.007397 764.125,73.4375 C 762.90014,74.07196 761.48559,74.290502 758.28125,74.375 C 753.85415,74.491734 753.82715,74.510759 750.75,73.21875 C 748.25723,72.17211 746.86207,70.005362 747.65625,68.4375 C 748.02757,67.704465 748.70301,67.353426 749.375,67.34375 z M 666.625,67.40625 C 667.38645,67.435812 668.30214,67.712424 669.40625,68.21875 C 671.71234,69.276285 674.09425,69.281579 676.34375,68.25 C 678.28595,67.359351 680.20356,67.569745 681.03125,68.75 C 681.71315,69.722362 680.0737,71.62768 678,72.28125 C 675.84416,72.960715 669.8212,72.923285 667.625,72.21875 C 664.32511,71.160165 663.15057,69.469911 664.75,68.03125 C 665.24393,67.58697 665.86355,67.376688 666.625,67.40625 z M 655.75,67.71875 C 658.02854,67.71875 658.40627,68.019532 658.40625,69.84375 C 658.40625,70.901533 658.90257,72.103124 659.90625,73.5 C 660.72853,74.644395 661.72536,76.122937 662.125,76.8125 C 663.77132,79.653 668.66964,81.154207 674.78125,80.65625 C 679.31355,80.28698 681.958,79.235973 683,77.40625 C 683.43982,76.63395 684.39263,75.381268 685.125,74.625 C 686.46446,73.241825 686.79497,72.419048 687.03125,70.09375 C 687.14843,68.940668 687.35094,68.833721 689.09375,68.71875 C 692.90145,68.467565 694.21606,71.185736 693.0625,76.84375 C 691.66222,83.7118 686.17932,88.87343 678.34375,90.75 C 673.2646,91.96643 667.28133,91.273848 662.21875,88.84375 C 655.83338,85.7787 651.47423,78.700902 651.9375,72.15625 C 652.16744,68.908187 653.20039,67.71875 655.75,67.71875 z M 660.96875,68.28125 C 661.19026,68.275116 661.40794,68.2974 661.625,68.3125 C 662.96805,68.405911 663.27105,68.641043 663.71875,69.875 C 664.49504,72.014585 667.5295,73.306297 672.03125,73.40625 C 673.92994,73.448399 676.26165,73.30775 677.21875,73.125 C 679.30631,72.726404 681.78127,70.965186 681.78125,69.875 C 681.78125,68.87418 684.73028,68.277958 685.78125,69.0625 C 687.07992,70.031948 686.29377,73.098903 684.375,74.53125 C 683.95337,74.845994 683.18569,75.809073 682.6875,76.6875 C 682.18927,77.56592 681.11477,78.60708 680.28125,79 C 679.19624,79.51145 677.30845,79.772613 673.625,79.875 C 665.97819,80.08758 664.48211,79.379955 660.875,74.03125 C 659.06302,71.344407 658.46276,69.147402 659.40625,68.59375 C 659.67285,68.437301 660.30422,68.299651 660.96875,68.28125 z "
       transform="translate(-58.831415,22.345826)"
       id="path5289" />
  </g>
  <g
     inkscape:groupmode="layer"
     id="layer3"
     inkscape:label="Text"
     style="display:inline"
     transform="translate(58.831415,-26.362183)">
    <flowRoot
       xml:space="preserve"
       id="flowRoot2841"
       style="font-size:40px;font-style:normal;font-weight:bold;fill:#800000;font-family:MAXIMO"
       transform="matrix(1.203839,0,0,1.095266,-133.7313,-79.00751)"><flowRegion
         id="flowRegion2843"><rect
           id="rect2845"
           width="324"
           height="59"
           x="210"
           y="106.36218"
           style="font-size:40px;font-style:normal;font-weight:bold;fill:#800000;font-family:MAXIMO" /></flowRegion><flowPara
         id="flowPara2847">G O N I A T </flowPara></flowRoot>    <flowRoot
       xml:space="preserve"
       id="flowRoot2849"
       style="font-size:16px;font-weight:bold;fill:#b53131;fill-opacity:1;font-family:MAXIMO"
       transform="matrix(1.314299,0,0,1.000081,-436.2356,-25.00828)"><flowRegion
         id="flowRegion2851"><rect
           id="rect2853"
           width="401.62845"
           height="24"
           x="424"
           y="115.36218"
           style="font-size:16px;font-weight:bold;fill:#b53131;fill-opacity:1;font-family:MAXIMO" /></flowRegion><flowPara
         id="flowPara2855">PALEOZOIC  AMMONOID  DATABASE  SYSTEM</flowPara></flowRoot>    <text
       xml:space="preserve"
       style="font-size:27.6397953px;font-style:normal;font-weight:bold;fill:#800000;fill-opacity:1;stroke:none;stroke-width:1px;stroke-linecap:butt;stroke-linejoin:miter;stroke-opacity:1;font-family:MAXIMO"
       x="326.26163"
       y="93.873459"
       id="text2857"
       transform="scale(1.1554366,0.8654737)"><tspan
         sodipodi:role="line"
         id="tspan2859"
         x="326.26163"
         y="93.873459">O N L I N E</tspan></text>
  </g>
</svg>
